<?xml version="1.0" encoding="UTF-8"?>
<svg id="Layer_2" data-name="Layer 2" xmlns="http://www.w3.org/2000/svg" viewBox="0 0 2000 2000">
  <defs>
    <style>
      .cls-1 {
        fill: #231f20;
      }

      .cls-2 {
        fill: #fff;
      }
    </style>
  </defs>
  <g id="Layer_1" data-name="Layer 1">
    <g>
      <rect class="cls-2" width="2000" height="2000"/>
      <g id="Layer_1-2" data-name="Layer 1-2">
        <g id="Layer_2-2" data-name="Layer 2-2">
          <g id="uuid-6183a479-158c-4d81-880f-f1c87adebd08">
            <path class="cls-1" d="M492.04,1060.15v.13c-59.24,0-66.6-60.15-31.51-60.15,16.99,0,34.57,17.71,56.96,17.71,16.54,0,25.39-8.59,30.01-17.77,3.26-6.58,4.3-13.41,4.3-17.64.06-31.7-33.07-57.48-65.1-57.48-27.21,0-61.98,14.58-68.8,64.38,9.31-36.65,35.48-49.61,59.76-49.61,57.94,0,66.6,60.15,31.51,60.15-16.99,0-34.57-17.71-56.96-17.71-16.54,0-25.39,8.59-30.01,17.77-3.25,6.51-4.36,13.41-4.36,17.64,0,31.57,33.07,57.42,65.16,57.42,27.21,0,61.97-14.58,68.81-64.38-9.31,36.59-35.48,49.54-59.76,49.54h0Z"/>
            <path class="cls-1" d="M618.53,926.57v2.08c-12.82,0-17.64,5.28-17.64,24.35v116.33s41.6,0,41.6,0c18.49,0,32.29-10.09,39.45-34.43h2.08s-7.74,38.6-7.74,38.6h-114.05v-2.08c12.63,0,17.64-5.28,17.64-24.35v-94.07c0-19.08-4.82-24.35-17.64-24.35v-2.08h56.31Z"/>
            <path class="cls-1" d="M923.18,1044.4v-.07s46.8-117.76,46.8-117.76h33.4s.2,2.08.2,2.08c-12.57,0-17.25,5.28-15.49,24.35l12.37,94.07c1.88,19.08,7.16,24.35,19.98,24.35l.2,2.08h-56.5s-.2-2.08-.2-2.08c12.82,0,17.25-5.28,15.3-24.35l-12.76-99.73-50.19,126.16h-3.77s-51.88-125.12-51.88-125.12l-8.4,98.69c-.85,19.08,3.77,24.35,16.6,24.35l-.2,2.08h-39.71s.2-2.08.2-2.08c12.82,0,17.84-5.28,18.68-24.35l8.14-94.07c.85-19.08-4.04-24.35-16.6-24.35l.2-2.08h30.66c2.74,0,4.82,1.3,5.93,3.77l47.07,114.05h0Z"/>
            <path class="cls-1" d="M1294.7,1037.24l.07-.07v-84.17c0-19.08-5.01-24.35-17.64-24.35v-2.08h39.45v2.08c-12.63,0-17.64,5.28-17.64,24.35v120.57s-108.13-120.95-108.13-120.95v94.52c0,19.08,4.82,24.35,17.64,24.35v2.08h-39.45v-2.08c12.82,0,17.64-5.28,17.64-24.35v-94.13c0-19.08-5.01-24.35-17.64-24.35v-2.08h22.65c2.73,0,5.01,1.04,6.9,3.19l96.15,107.48h0Z"/>
            <path class="cls-1" d="M1364.09,1071.41h-.13c12.82,0,17.64-5.28,17.64-24.35v-116.33s-11.98,0-11.98,0c-20.38,0-37.56,13.86-37.56,34.43h-2.08s3.58-38.6,3.58-38.6h117.18s3.58,38.6,3.58,38.6h-2.08c0-20.57-17.19-34.43-37.56-34.43h-11.98s0,116.33,0,116.33c0,19.08,4.82,24.35,17.64,24.35v2.08h-56.24v-2.08h0,0Z"/>
            <path class="cls-1" d="M1470.79,1067.83v-31.9h2.15c0,19.6,20.83,34.89,49.54,34.89,22.78,0,38.47-10.42,38.47-27.21,0-40.62-90.62-31.05-90.62-79.74,0-23.17,21.03-38.93,51.88-38.93,14.45,0,38.93,3.64,49.34,7.23v31.9h-2.15c0-19.79-19.14-34.89-44.46-34.89-20.64,0-33.4,9.57-33.4,25.13,0,41.66,90.62,33,90.62,80.14,0,24.22-24.67,40.62-58.91,40.62-16.79,0-42.12-3.84-52.53-7.23h.07Z"/>
            <path class="cls-1" d="M834.71,1024.67v.07c-11.85,21.87-25.52,37.62-58.33,37.62-30.4,0-61.71-24.74-63.53-59.11,28.65-31.51,55.34,8.01,86,8.01,56.9,0,38.41-85.48-32.22-85.08-36.26.2-74.14,23.7-74.14,73.82,0,39.52,29.69,71.81,67.31,74.73,1.82.2,3.71.26,5.53.26,23.63,0,59.43-11.78,70.11-49.86l-.72-.45h0ZM790.71,993.36v.07c-27.21,0-50.32-24.47-77.99,4.3.85-45.5,25.39-65.1,49.74-65.75,57.8-1.56,60.21,61.39,28.25,61.39h0Z"/>
            <path class="cls-1" d="M1162.93,1024.67v.07c-11.85,21.87-25.52,37.62-58.33,37.62-30.4,0-61.71-24.74-63.53-59.11,28.65-31.51,55.34,8.01,86,8.01,56.9,0,38.41-85.48-32.22-85.08-36.26.2-74.14,23.7-74.14,73.82,0,39.52,29.68,71.81,67.31,74.73,1.82.2,3.71.26,5.53.26,23.63,0,59.43-11.78,70.11-49.86l-.72-.45h0ZM1118.94,993.42c-27.21,0-50.32-24.47-77.99,4.3.85-45.5,25.39-65.1,49.74-65.75,57.8-1.56,60.22,61.39,28.25,61.39v.07Z"/>
          </g>
        </g>
      </g>
    </g>
  </g>
</svg>