<svg xmlns="http://www.w3.org/2000/svg" viewBox="0 0 320 48" fill="none" aria-hidden="true">
  <defs>
    <style>
      @import url("https://fonts.googleapis.com/css2?family=Cinzel:wght@500;600&amp;display=swap");
      .word {
        font-family: "Cinzel", ui-serif, Georgia, serif;
        font-size: 26px;
        font-weight: 500;
        letter-spacing: 0.14em;
        fill: currentColor;
      }
    </style>
  </defs>
  <!-- Stylized E (brand logomark) aligned to cap height -->
  <g transform="translate(0 4) scale(0.4)" fill="none" stroke="currentColor" stroke-width="3.5" stroke-linecap="round">
    <circle cx="50" cy="50" r="47" stroke-width="1.25" opacity="0.85"/>
    <path d="M50 12 C28 12 12 30 12 50 C12 62 18 72 28 78"/>
    <path d="M50 12 C72 12 88 30 88 50 C88 62 82 72 72 78"/>
    <path d="M28 78 C36 84 43 88 50 88 C57 88 64 84 72 78"/>
    <path d="M50 22 C40 22 32 30 32 40 C32 48 38 54 50 58 C62 54 68 48 68 40 C68 30 60 22 50 22 Z" stroke-width="2.8" stroke-linejoin="round"/>
  </g>
  <text class="word" x="46" y="33">LEMENTS</text>
</svg>
