<?xml version="1.0" encoding="UTF-8"?>
<svg id="Layer_2" data-name="Layer 2" xmlns="http://www.w3.org/2000/svg" viewBox="0 0 2000 2000">
  <defs>
    <style>
      .cls-1 {
        fill: #231f20;
      }

      .cls-2 {
        fill: #fff;
      }
    </style>
  </defs>
  <g id="Layer_1" data-name="Layer 1">
    <rect class="cls-1" width="2000" height="2000"/>
    <path class="cls-2" d="M1041.36,1344.62v.75c-339.21,0-381.33-344.43-180.41-344.43,97.29,0,197.95,101.38,326.17,101.38,94.69,0,145.38-49.19,171.84-101.76,18.64-37.65,24.61-76.77,24.61-101.01.35-181.53-189.38-329.14-372.76-329.14-155.83,0-354.87,83.5-393.97,368.64,53.29-209.87,203.14-284.04,342.18-284.04,331.73,0,381.33,344.43,180.41,344.43-97.29,0-197.95-101.38-326.17-101.38-94.69,0-145.38,49.19-171.84,101.76-18.64,37.28-24.99,76.77-24.99,101.01,0,180.78,189.35,328.76,373.11,328.76,155.8,0,354.84-83.5,394-368.64-53.29,209.49-203.14,283.67-342.18,283.67h0Z"/>
  </g>
</svg>